<svg xmlns="http://www.w3.org/2000/svg" viewBox="0 0 75.35 17.16"><title>logo-white</title><path d="M8,8a7.55,7.55,0,0,1-1,4.25,3.4,3.4,0,0,1-3,1.39,3.42,3.42,0,0,1-3-1.36,7.19,7.19,0,0,1-1-4.06V6.09a7.35,7.35,0,0,1,1-4.19,3.39,3.39,0,0,1,3-1.37,3.45,3.45,0,0,1,3,1.32A7.12,7.12,0,0,1,8,5.93ZM6.44,5.82a6,6,0,0,0-.57-3,2,2,0,0,0-1.8-.95,2,2,0,0,0-1.79.94A6.05,6.05,0,0,0,1.7,5.69V8.3a6.07,6.07,0,0,0,.6,3.06,1.94,1.94,0,0,0,1.79,1,1.91,1.91,0,0,0,1.75-.93,5.77,5.77,0,0,0,.6-2.94Zm8.89,7.68h-1.6V2.66L10.51,3.87V2.39L15.08.64h.25V13.5Zm9-4.34V13.5h-3V.7h5a5.76,5.76,0,0,1,2.55.54,4.09,4.09,0,0,1,1.72,1.54,4.33,4.33,0,0,1,.6,2.27,3.73,3.73,0,0,1-1.31,3,5.43,5.43,0,0,1-3.61,1.12Zm0-2.38h2a1.84,1.84,0,0,0,1.34-.45,1.68,1.68,0,0,0,.46-1.27,2.12,2.12,0,0,0-.47-1.43,1.65,1.65,0,0,0-1.3-.54h-2Zm12.86,6.9a4.73,4.73,0,0,1-3.47-1.31A4.54,4.54,0,0,1,32.35,9V8.73a5.86,5.86,0,0,1,.54-2.58,3.93,3.93,0,0,1,1.55-1.73,4.66,4.66,0,0,1,2.41-.61A4,4,0,0,1,40,5.06,4.93,4.93,0,0,1,41.1,8.52V9.68H35.32A2.11,2.11,0,0,0,36,10.93a2,2,0,0,0,1.36.46,2.62,2.62,0,0,0,2.16-1L40.85,12a3.77,3.77,0,0,1-1.54,1.21A5.16,5.16,0,0,1,37.16,13.68ZM36.83,6.1c-.85,0-1.35.57-1.51,1.72h2.93V7.59a1.52,1.52,0,0,0-.35-1.1A1.41,1.41,0,0,0,36.83,6.1ZM41.9,8.66a5.75,5.75,0,0,1,.54-2.54A4,4,0,0,1,44,4.41a4.59,4.59,0,0,1,2.39-.6,4.22,4.22,0,0,1,3.3,1.33,5.11,5.11,0,0,1,1.21,3.6v.1a5,5,0,0,1-1.21,3.53,4.8,4.8,0,0,1-6.49.09,4.81,4.81,0,0,1-1.3-3.3v-.5Zm2.91.18a3.58,3.58,0,0,0,.4,1.93,1.35,1.35,0,0,0,1.2.62Q48,11.39,48,9v-.3C48,7,47.47,6.1,46.4,6.1s-1.5.73-1.58,2.21Zm16,0a5.83,5.83,0,0,1-1,3.54,3.12,3.12,0,0,1-2.64,1.33,2.67,2.67,0,0,1-2.12-1v4.44H52.21V4h2.72l.09.88a2.69,2.69,0,0,1,2.2-1.06,3.15,3.15,0,0,1,2.68,1.3,5.87,5.87,0,0,1,1,3.57ZM58,8.63c0-1.69-.48-2.53-1.45-2.53a1.37,1.37,0,0,0-1.38.75V10.6a1.4,1.4,0,0,0,1.4.79c.92,0,1.4-.81,1.43-2.44Zm7.26,4.87H62.29V0h2.92Zm6.31.18A4.77,4.77,0,0,1,68,12.37,4.53,4.53,0,0,1,66.71,9V8.73a6,6,0,0,1,.53-2.58,3.93,3.93,0,0,1,1.55-1.73,4.7,4.7,0,0,1,2.42-.61,4,4,0,0,1,3.1,1.25,4.93,4.93,0,0,1,1.14,3.46V9.68H69.67a2.16,2.16,0,0,0,.68,1.25,2,2,0,0,0,1.37.46,2.58,2.58,0,0,0,2.15-1L75.2,12a3.65,3.65,0,0,1-1.54,1.21A5.09,5.09,0,0,1,71.52,13.68ZM71.19,6.1c-.85,0-1.36.57-1.52,1.72h2.94V7.59a1.48,1.48,0,0,0-.36-1.1A1.38,1.38,0,0,0,71.19,6.1Z" transform="translate(-0.11)" fill="#fff"/></svg>